#!OML:ASF I:\Actors\actors\Patient Classification 2\Patient 1\Session 1\actor1.ASF
:FULLY-SPECIFIED
:DEGREES
748
root -0.648597 18.7972 4.79029 5.60278 2.05693 -1.77691
lowerback 5.07243 2.01334 -1.51283
upperback -3.03642 2.59166 0.224914
thorax -6.0819 1.34761 0.814289
lowerneck -13.7842 -6.08361 -4.55387
upperneck 22.4723 -8.88015 5.84411
head 9.87767 -3.86218 1.65753
rclavicle -7.83336e-015 1.43125e-014
rhumerus -19.2195 33.223 -71.2499
rradius 109.116
rwrist -3.65731
rhand -22.8332 -35.545
rfingers 7.12502
rthumb 3.60419 -65.4943
lclavicle -7.83336e-015 1.43125e-014
lhumerus -24.8733 -34.3464 89.0851
lradius 120.281
lwrist 48.9187
lhand -15.2903 -15.5872
lfingers 7.12502
lthumb 10.8848 14.1107
rfemur 0 0 0
rtibia 0
rfoot 0 0
rtoes 0
lfemur -10.1293 -7.14874 -12.3816
ltibia 22.505
lfoot -20.5534 9.73789
ltoes -55.7408
749
root -0.650699 18.7963 4.80757 5.64712 1.99785 -1.73313
lowerback 5.02139 1.97395 -1.49938
upperback -3.04239 2.53757 0.168625
thorax -6.05402 1.31904 0.755706
lowerneck -13.7022 -6.00285 -4.55896
upperneck 21.9823 -8.75194 5.918
head 9.68479 -3.8069 1.70456
rclavicle -6.73383e-015 -8.34896e-015
rhumerus -23.4745 34.1071 -72.8778
rradius 109.861
rwrist -5.30871
rhand -21.2108 -35.7594
rfingers 7.12502
rthumb 5.1708 -65.6763
lclavicle -6.73383e-015 -8.34896e-015
lhumerus -26.302 -33.7413 89.039
lradius 120.275
lwrist 48.9104
lhand -14.4387 -15.1245
lfingers 7.12502
lthumb 11.7061 14.5284
rfemur 0 0 0
rtibia 0
rfoot 0 0
rtoes 0
lfemur -10.0776 -7.17599 -12.4322
ltibia 22.4672
lfoot -20.6112 9.78566
ltoes -55.7049
750
root -0.652447 18.7946 4.82396 5.68081 1.95506 -1.65406
lowerback 4.98781 1.92752 -1.56357
upperback -3.04475 2.47036 0.155939
thorax -6.03769 1.28818 0.786555
lowerneck -13.5558 -5.89493 -4.69085
upperneck 21.4233 -8.57527 6.0829
head 9.46453 -3.73201 1.81135
rclavicle 1.06536e-014 9.74045e-015
rhumerus -28.2614 34.3154 -75.1322
rradius 110.276
rwrist -5.3117
rhand -19.7197 -35.3268
rfingers 7.12502
rthumb 6.61039 -65.2036
lclavicle 1.06536e-014 9.74045e-015
lhumerus -27.8941 -33.1558 89.1325
lradius 120.198
lwrist 48.8204
lhand -13.932 -14.8164
lfingers 7.12502
lthumb 12.1947 14.8081
rfemur 0 0 0
rtibia 0
rfoot 0 0
rtoes 0
lfemur -10.0142 -7.22387 -12.5221
ltibia 22.4197
lfoot -20.6978 9.80168
ltoes -55.6004
751
root -0.653946 18.793 4.84342 5.72311 1.86499 -1.61003
lowerback 5.03721 1.88759 -1.57022
upperback -3.13813 2.41485 0.147617
thorax -6.1629 1.26192 0.783686
lowerneck -13.2669 -5.7383 -4.82805
upperneck 20.8337 -8.3305 6.23937
head 9.2039 -3.63007 1.92761
rclavicle -4.66895e-014 3.77691e-015
rhumerus -33.4153 33.9628 -77.8273
rradius 110.319
rwrist -4.17023
rhand -18.5133 -34.7842
rfingers 7.12502
rthumb 7.77494 -64.6213
lclavicle -4.66895e-014 3.77691e-015
lhumerus -29.9293 -32.6669 89.4091
lradius 120.18
lwrist 48.7806
lhand -13.5323 -14.7782
lfingers 7.12502
lthumb 12.58 14.823
rfemur 0 0 0
rtibia 0
rfoot 0 0
rtoes 0
lfemur -9.94441 -7.19575 -12.5738
ltibia 22.3749
lfoot -20.7824 9.78898
ltoes -55.5047
752
root -0.655572 18.792 4.86264 5.78964 1.72218 -1.64786
lowerback 5.10174 1.86219 -1.44391
upperback -3.27662 2.38729 0.113408
thorax -6.33842 1.24359 0.675244
lowerneck -13.1293 -5.62773 -4.76027
upperneck 20.509 -8.16485 6.19943
head 9.05098 -3.56091 1.92791
rclavicle 5.35414e-014 1.98785e-016
rhumerus -38.1617 32.844 -80.2528
rradius 109.766
rwrist -1.47328
rhand -15.1097 -34.6626
rfingers 7.12502
rthumb 11.059 -64.3512
lclavicle 5.35414e-014 1.98785e-016
lhumerus -32.243 -32.2574 89.8055
lradius 120.074
lwrist 48.721
lhand -13.2969 -15.0308
lfingers 7.12502
lthumb 12.807 14.5563
rfemur 0 0 0
rtibia 0
rfoot 0 0
rtoes 0
lfemur -9.89541 -7.19167 -12.5354
ltibia 22.3378
lfoot -20.8736 9.8554
ltoes -55.4215
753
root -0.655844 18.7899 4.87867 5.80468 1.634 -1.68588
lowerback 5.0892 1.81144 -1.30402
upperback -3.30761 2.32946 0.0966554
thorax -6.35568 1.20883 0.585601
lowerneck -13.1389 -5.54762 -4.73266
upperneck 20.261 -8.03857 6.18282
head 8.95774 -3.50581 1.93367
rclavicle 5.54112e-015 6.55989e-015
rhumerus -42.7244 32.0365 -82.8431
rradius 108.977
rwrist -1.1346
rhand -14.7146 -34.6229
rfingers 7.12502
rthumb 11.44 -64.2908
lclavicle 5.54112e-015 6.55989e-015
lhumerus -34.4518 -31.7954 90.282
lradius 119.751
lwrist 48.563
lhand -13.861 -15.4561
lfingers 7.12502
lthumb 12.2631 14.1643
rfemur 0 0 0
rtibia 0
rfoot 0 0
rtoes 0
lfemur -9.81492 -7.247 -12.5003
ltibia 22.3123
lfoot -20.9618 9.91388
ltoes -55.3499
